<mxfile host="app.diagrams.net" agent="Mozilla/5.0 (Windows NT 10.0; Win64; x64) AppleWebKit/537.36 (KHTML, like Gecko) Chrome/135.0.0.0 Safari/537.36" version="26.2.13">
  <diagram name="Page-1" id="ZakXmjOfpwx-5k14hfva">
    <mxGraphModel dx="2530" dy="924" grid="1" gridSize="10" guides="1" tooltips="1" connect="1" arrows="1" fold="1" page="1" pageScale="1" pageWidth="850" pageHeight="1100" math="0" shadow="0">
      <root>
        <mxCell id="0" />
        <mxCell id="1" parent="0" />
        <mxCell id="eXFcgHt2co3P4tRYhQmg-19" value="" style="edgeStyle=orthogonalEdgeStyle;rounded=0;orthogonalLoop=1;jettySize=auto;html=1;" parent="1" source="eXFcgHt2co3P4tRYhQmg-1" target="eXFcgHt2co3P4tRYhQmg-3" edge="1">
          <mxGeometry relative="1" as="geometry" />
        </mxCell>
        <mxCell id="eXFcgHt2co3P4tRYhQmg-1" value="start" style="ellipse;whiteSpace=wrap;html=1;" parent="1" vertex="1">
          <mxGeometry x="335" y="10" width="180" height="110" as="geometry" />
        </mxCell>
        <mxCell id="eXFcgHt2co3P4tRYhQmg-3" value="initialize game" style="rounded=0;whiteSpace=wrap;html=1;" parent="1" vertex="1">
          <mxGeometry x="345" y="160" width="160" height="70" as="geometry" />
        </mxCell>
        <mxCell id="eXFcgHt2co3P4tRYhQmg-21" style="edgeStyle=orthogonalEdgeStyle;rounded=0;orthogonalLoop=1;jettySize=auto;html=1;exitX=0.5;exitY=1;exitDx=0;exitDy=0;entryX=0.5;entryY=0;entryDx=0;entryDy=0;" parent="1" source="eXFcgHt2co3P4tRYhQmg-4" target="eXFcgHt2co3P4tRYhQmg-11" edge="1">
          <mxGeometry relative="1" as="geometry" />
        </mxCell>
        <mxCell id="eXFcgHt2co3P4tRYhQmg-4" value="assign 500 coins to player&#39;s bank" style="rounded=0;whiteSpace=wrap;html=1;" parent="1" vertex="1">
          <mxGeometry x="340" y="270" width="160" height="70" as="geometry" />
        </mxCell>
        <mxCell id="eXFcgHt2co3P4tRYhQmg-31" value="" style="edgeStyle=orthogonalEdgeStyle;rounded=0;orthogonalLoop=1;jettySize=auto;html=1;" parent="1" source="eXFcgHt2co3P4tRYhQmg-10" target="eXFcgHt2co3P4tRYhQmg-15" edge="1">
          <mxGeometry relative="1" as="geometry" />
        </mxCell>
        <mxCell id="eXFcgHt2co3P4tRYhQmg-10" value="is player&#39;s bank &amp;gt; 0?" style="rhombus;whiteSpace=wrap;html=1;" parent="1" vertex="1">
          <mxGeometry x="337.5" y="590" width="167.5" height="160" as="geometry" />
        </mxCell>
        <mxCell id="eXFcgHt2co3P4tRYhQmg-22" style="edgeStyle=orthogonalEdgeStyle;rounded=0;orthogonalLoop=1;jettySize=auto;html=1;exitX=0.5;exitY=1;exitDx=0;exitDy=0;" parent="1" source="eXFcgHt2co3P4tRYhQmg-11" target="eXFcgHt2co3P4tRYhQmg-12" edge="1">
          <mxGeometry relative="1" as="geometry" />
        </mxCell>
        <mxCell id="eXFcgHt2co3P4tRYhQmg-11" value="generate a shuffled deck of 52 cards" style="rounded=0;whiteSpace=wrap;html=1;" parent="1" vertex="1">
          <mxGeometry x="340" y="380" width="160" height="70" as="geometry" />
        </mxCell>
        <mxCell id="eXFcgHt2co3P4tRYhQmg-23" style="edgeStyle=orthogonalEdgeStyle;rounded=0;orthogonalLoop=1;jettySize=auto;html=1;exitX=0.5;exitY=1;exitDx=0;exitDy=0;" parent="1" source="eXFcgHt2co3P4tRYhQmg-12" edge="1">
          <mxGeometry relative="1" as="geometry">
            <mxPoint x="420" y="590" as="targetPoint" />
          </mxGeometry>
        </mxCell>
        <mxCell id="eXFcgHt2co3P4tRYhQmg-12" value="clear the table from cards&amp;nbsp;" style="rounded=0;whiteSpace=wrap;html=1;" parent="1" vertex="1">
          <mxGeometry x="340" y="490" width="160" height="70" as="geometry" />
        </mxCell>
        <mxCell id="eXFcgHt2co3P4tRYhQmg-14" value="stop" style="ellipse;whiteSpace=wrap;html=1;" parent="1" vertex="1">
          <mxGeometry x="370" y="3970" width="185" height="130" as="geometry" />
        </mxCell>
        <mxCell id="eXFcgHt2co3P4tRYhQmg-15" value="player input a bet &quot;10&quot; or &quot;50&quot; or &quot;100&quot; or &quot;500&quot;" style="shape=parallelogram;perimeter=parallelogramPerimeter;whiteSpace=wrap;html=1;fixedSize=1;" parent="1" vertex="1">
          <mxGeometry x="332.5" y="780" width="180" height="80" as="geometry" />
        </mxCell>
        <mxCell id="eXFcgHt2co3P4tRYhQmg-16" value="is player&#39;s bet &amp;lt;= bank?" style="rhombus;whiteSpace=wrap;html=1;" parent="1" vertex="1">
          <mxGeometry x="322.19" y="910" width="185" height="180" as="geometry" />
        </mxCell>
        <mxCell id="eXFcgHt2co3P4tRYhQmg-79" style="edgeStyle=orthogonalEdgeStyle;rounded=0;orthogonalLoop=1;jettySize=auto;html=1;exitX=0.5;exitY=1;exitDx=0;exitDy=0;entryX=0.5;entryY=0;entryDx=0;entryDy=0;" parent="1" source="eXFcgHt2co3P4tRYhQmg-17" target="eXFcgHt2co3P4tRYhQmg-59" edge="1">
          <mxGeometry relative="1" as="geometry" />
        </mxCell>
        <mxCell id="eXFcgHt2co3P4tRYhQmg-17" value="show one card for dealer and hide the second card&amp;nbsp;&lt;div&gt;show the player&#39;s two cards and his score&lt;/div&gt;" style="shape=parallelogram;perimeter=parallelogramPerimeter;whiteSpace=wrap;html=1;fixedSize=1;" parent="1" vertex="1">
          <mxGeometry x="322.5" y="1260" width="215" height="110" as="geometry" />
        </mxCell>
        <mxCell id="eXFcgHt2co3P4tRYhQmg-34" style="edgeStyle=orthogonalEdgeStyle;rounded=0;orthogonalLoop=1;jettySize=auto;html=1;exitX=0.5;exitY=1;exitDx=0;exitDy=0;" parent="1" source="eXFcgHt2co3P4tRYhQmg-18" target="eXFcgHt2co3P4tRYhQmg-17" edge="1">
          <mxGeometry relative="1" as="geometry" />
        </mxCell>
        <mxCell id="eXFcgHt2co3P4tRYhQmg-18" value="assign 2 card to player&amp;nbsp;&lt;div&gt;assign 2 cards to dealer&lt;/div&gt;&lt;div&gt;calculate player&#39;s score and dealer&#39;s score&lt;/div&gt;" style="rounded=0;whiteSpace=wrap;html=1;" parent="1" vertex="1">
          <mxGeometry x="340" y="1120" width="180" height="80" as="geometry" />
        </mxCell>
        <mxCell id="eXFcgHt2co3P4tRYhQmg-20" style="edgeStyle=orthogonalEdgeStyle;rounded=0;orthogonalLoop=1;jettySize=auto;html=1;exitX=0.5;exitY=1;exitDx=0;exitDy=0;entryX=0.556;entryY=-0.029;entryDx=0;entryDy=0;entryPerimeter=0;" parent="1" source="eXFcgHt2co3P4tRYhQmg-3" target="eXFcgHt2co3P4tRYhQmg-4" edge="1">
          <mxGeometry relative="1" as="geometry" />
        </mxCell>
        <mxCell id="eXFcgHt2co3P4tRYhQmg-36" style="edgeStyle=orthogonalEdgeStyle;rounded=0;orthogonalLoop=1;jettySize=auto;html=1;exitX=0.5;exitY=1;exitDx=0;exitDy=0;entryX=0.5;entryY=0;entryDx=0;entryDy=0;" parent="1" source="eXFcgHt2co3P4tRYhQmg-25" target="eXFcgHt2co3P4tRYhQmg-26" edge="1">
          <mxGeometry relative="1" as="geometry" />
        </mxCell>
        <mxCell id="eXFcgHt2co3P4tRYhQmg-25" value="player chooses &quot;hit&quot; or &quot;stand&quot; or &quot;double&quot;" style="shape=parallelogram;perimeter=parallelogramPerimeter;whiteSpace=wrap;html=1;fixedSize=1;" parent="1" vertex="1">
          <mxGeometry x="322.19" y="1620" width="200" height="100" as="geometry" />
        </mxCell>
        <mxCell id="eXFcgHt2co3P4tRYhQmg-100" style="edgeStyle=orthogonalEdgeStyle;rounded=0;orthogonalLoop=1;jettySize=auto;html=1;exitX=0.5;exitY=1;exitDx=0;exitDy=0;entryX=0.5;entryY=0;entryDx=0;entryDy=0;" parent="1" source="eXFcgHt2co3P4tRYhQmg-26" target="eXFcgHt2co3P4tRYhQmg-29" edge="1">
          <mxGeometry relative="1" as="geometry" />
        </mxCell>
        <mxCell id="eXFcgHt2co3P4tRYhQmg-26" value="is player hitting?" style="rhombus;whiteSpace=wrap;html=1;" parent="1" vertex="1">
          <mxGeometry x="337.19" y="1750" width="150" height="140" as="geometry" />
        </mxCell>
        <mxCell id="eXFcgHt2co3P4tRYhQmg-97" style="edgeStyle=orthogonalEdgeStyle;rounded=0;orthogonalLoop=1;jettySize=auto;html=1;exitX=0.5;exitY=1;exitDx=0;exitDy=0;" parent="1" source="eXFcgHt2co3P4tRYhQmg-27" target="eXFcgHt2co3P4tRYhQmg-28" edge="1">
          <mxGeometry relative="1" as="geometry" />
        </mxCell>
        <mxCell id="eXFcgHt2co3P4tRYhQmg-27" value="assign another card for player&lt;div&gt;update the score&lt;/div&gt;" style="rounded=0;whiteSpace=wrap;html=1;" parent="1" vertex="1">
          <mxGeometry x="49.38000000000011" y="1780" width="157.5" height="70" as="geometry" />
        </mxCell>
        <mxCell id="eXFcgHt2co3P4tRYhQmg-43" style="edgeStyle=orthogonalEdgeStyle;rounded=0;orthogonalLoop=1;jettySize=auto;html=1;exitX=0.5;exitY=1;exitDx=0;exitDy=0;entryX=0.5;entryY=0;entryDx=0;entryDy=0;" parent="1" source="eXFcgHt2co3P4tRYhQmg-28" edge="1">
          <mxGeometry relative="1" as="geometry">
            <mxPoint x="128.125" y="2020" as="targetPoint" />
          </mxGeometry>
        </mxCell>
        <mxCell id="eXFcgHt2co3P4tRYhQmg-28" value="show player cards and score" style="shape=parallelogram;perimeter=parallelogramPerimeter;whiteSpace=wrap;html=1;fixedSize=1;" parent="1" vertex="1">
          <mxGeometry x="33.75" y="1880" width="188.75" height="80" as="geometry" />
        </mxCell>
        <mxCell id="eXFcgHt2co3P4tRYhQmg-105" style="edgeStyle=orthogonalEdgeStyle;rounded=0;orthogonalLoop=1;jettySize=auto;html=1;exitX=0.5;exitY=1;exitDx=0;exitDy=0;entryX=0.5;entryY=0;entryDx=0;entryDy=0;" parent="1" source="eXFcgHt2co3P4tRYhQmg-29" target="eXFcgHt2co3P4tRYhQmg-76" edge="1">
          <mxGeometry relative="1" as="geometry" />
        </mxCell>
        <mxCell id="eXFcgHt2co3P4tRYhQmg-29" value="is player doubling?" style="rhombus;whiteSpace=wrap;html=1;" parent="1" vertex="1">
          <mxGeometry x="327.19" y="1930" width="170" height="160" as="geometry" />
        </mxCell>
        <mxCell id="eXFcgHt2co3P4tRYhQmg-32" style="edgeStyle=orthogonalEdgeStyle;rounded=0;orthogonalLoop=1;jettySize=auto;html=1;exitX=0.5;exitY=1;exitDx=0;exitDy=0;entryX=0.538;entryY=0.011;entryDx=0;entryDy=0;entryPerimeter=0;" parent="1" source="eXFcgHt2co3P4tRYhQmg-15" target="eXFcgHt2co3P4tRYhQmg-16" edge="1">
          <mxGeometry relative="1" as="geometry" />
        </mxCell>
        <mxCell id="eXFcgHt2co3P4tRYhQmg-33" style="edgeStyle=orthogonalEdgeStyle;rounded=0;orthogonalLoop=1;jettySize=auto;html=1;exitX=0.5;exitY=1;exitDx=0;exitDy=0;entryX=0.428;entryY=0;entryDx=0;entryDy=0;entryPerimeter=0;" parent="1" source="eXFcgHt2co3P4tRYhQmg-16" target="eXFcgHt2co3P4tRYhQmg-18" edge="1">
          <mxGeometry relative="1" as="geometry" />
        </mxCell>
        <mxCell id="eXFcgHt2co3P4tRYhQmg-50" style="edgeStyle=orthogonalEdgeStyle;rounded=0;orthogonalLoop=1;jettySize=auto;html=1;exitX=0.5;exitY=1;exitDx=0;exitDy=0;" parent="1" source="eXFcgHt2co3P4tRYhQmg-46" target="eXFcgHt2co3P4tRYhQmg-48" edge="1">
          <mxGeometry relative="1" as="geometry" />
        </mxCell>
        <mxCell id="eXFcgHt2co3P4tRYhQmg-46" value="is player&#39;s score &amp;gt;= dealer&#39;s score?" style="rhombus;whiteSpace=wrap;html=1;" parent="1" vertex="1">
          <mxGeometry x="1020" y="2525" width="172.5" height="150" as="geometry" />
        </mxCell>
        <mxCell id="eXFcgHt2co3P4tRYhQmg-48" value="deal another card to dealer&amp;nbsp;&lt;div&gt;update dealer score&lt;/div&gt;" style="rounded=0;whiteSpace=wrap;html=1;" parent="1" vertex="1">
          <mxGeometry x="1020" y="2715" width="170" height="60" as="geometry" />
        </mxCell>
        <mxCell id="eXFcgHt2co3P4tRYhQmg-87" style="edgeStyle=orthogonalEdgeStyle;rounded=0;orthogonalLoop=1;jettySize=auto;html=1;exitX=0.5;exitY=1;exitDx=0;exitDy=0;entryX=0.5;entryY=0;entryDx=0;entryDy=0;" parent="1" source="eXFcgHt2co3P4tRYhQmg-49" target="eXFcgHt2co3P4tRYhQmg-57" edge="1">
          <mxGeometry relative="1" as="geometry" />
        </mxCell>
        <mxCell id="eXFcgHt2co3P4tRYhQmg-49" value="is dealer&#39;s score &amp;gt; 21?" style="rhombus;whiteSpace=wrap;html=1;" parent="1" vertex="1">
          <mxGeometry x="319.68999999999994" y="2240" width="185" height="160" as="geometry" />
        </mxCell>
        <mxCell id="eXFcgHt2co3P4tRYhQmg-56" value="give player bank bet * 2" style="rounded=0;whiteSpace=wrap;html=1;" parent="1" vertex="1">
          <mxGeometry x="332.18999999999994" y="2555" width="160" height="90" as="geometry" />
        </mxCell>
        <mxCell id="eXFcgHt2co3P4tRYhQmg-88" style="edgeStyle=orthogonalEdgeStyle;rounded=0;orthogonalLoop=1;jettySize=auto;html=1;exitX=0.5;exitY=1;exitDx=0;exitDy=0;" parent="1" source="eXFcgHt2co3P4tRYhQmg-57" edge="1">
          <mxGeometry relative="1" as="geometry">
            <mxPoint x="414.07000000000005" y="2555" as="targetPoint" />
          </mxGeometry>
        </mxCell>
        <mxCell id="eXFcgHt2co3P4tRYhQmg-57" value="&quot;dealer&#39;s bust, player wins&quot;" style="shape=parallelogram;perimeter=parallelogramPerimeter;whiteSpace=wrap;html=1;fixedSize=1;" parent="1" vertex="1">
          <mxGeometry x="327.18999999999994" y="2435" width="165" height="90" as="geometry" />
        </mxCell>
        <mxCell id="eXFcgHt2co3P4tRYhQmg-58" value="is player score &amp;gt; 21?" style="rhombus;whiteSpace=wrap;html=1;" parent="1" vertex="1">
          <mxGeometry x="30" y="2020" width="198.75" height="170" as="geometry" />
        </mxCell>
        <mxCell id="eXFcgHt2co3P4tRYhQmg-103" style="edgeStyle=orthogonalEdgeStyle;rounded=0;orthogonalLoop=1;jettySize=auto;html=1;exitX=1;exitY=0.5;exitDx=0;exitDy=0;" parent="1" source="eXFcgHt2co3P4tRYhQmg-59" edge="1">
          <mxGeometry relative="1" as="geometry">
            <mxPoint x="600" y="1474.8235294117649" as="targetPoint" />
          </mxGeometry>
        </mxCell>
        <mxCell id="eXFcgHt2co3P4tRYhQmg-59" value="is player score = 21?" style="rhombus;whiteSpace=wrap;html=1;" parent="1" vertex="1">
          <mxGeometry x="346.24" y="1400" width="166.25" height="150" as="geometry" />
        </mxCell>
        <mxCell id="eXFcgHt2co3P4tRYhQmg-104" style="edgeStyle=orthogonalEdgeStyle;rounded=0;orthogonalLoop=1;jettySize=auto;html=1;exitX=0.5;exitY=1;exitDx=0;exitDy=0;" parent="1" source="eXFcgHt2co3P4tRYhQmg-60" edge="1">
          <mxGeometry relative="1" as="geometry">
            <mxPoint x="685.8823529411766" y="1590" as="targetPoint" />
          </mxGeometry>
        </mxCell>
        <mxCell id="eXFcgHt2co3P4tRYhQmg-60" value="give player bank bet * 2.5" style="rounded=0;whiteSpace=wrap;html=1;" parent="1" vertex="1">
          <mxGeometry x="596.51" y="1430" width="178.75" height="100" as="geometry" />
        </mxCell>
        <mxCell id="eXFcgHt2co3P4tRYhQmg-98" style="edgeStyle=orthogonalEdgeStyle;rounded=0;orthogonalLoop=1;jettySize=auto;html=1;exitX=1;exitY=0.5;exitDx=0;exitDy=0;" parent="1" source="eXFcgHt2co3P4tRYhQmg-62" edge="1">
          <mxGeometry relative="1" as="geometry">
            <mxPoint x="420" y="480" as="targetPoint" />
            <Array as="points">
              <mxPoint x="779" y="1640" />
              <mxPoint x="1030" y="1640" />
              <mxPoint x="1030" y="480" />
            </Array>
          </mxGeometry>
        </mxCell>
        <mxCell id="eXFcgHt2co3P4tRYhQmg-62" value="&#xa;&lt;span style=&quot;color: rgb(0, 0, 0); font-family: Helvetica; font-size: 12px; font-style: normal; font-variant-ligatures: normal; font-variant-caps: normal; font-weight: 400; letter-spacing: normal; orphans: 2; text-align: center; text-indent: 0px; text-transform: none; widows: 2; word-spacing: 0px; -webkit-text-stroke-width: 0px; white-space: normal; background-color: rgb(236, 236, 236); text-decoration-thickness: initial; text-decoration-style: initial; text-decoration-color: initial; display: inline !important; float: none;&quot;&gt;update player stats and bank&lt;/span&gt;&#xa;&#xa;" style="shape=parallelogram;perimeter=parallelogramPerimeter;whiteSpace=wrap;html=1;fixedSize=1;" parent="1" vertex="1">
          <mxGeometry x="596.51" y="1590" width="192.24" height="80" as="geometry" />
        </mxCell>
        <mxCell id="eXFcgHt2co3P4tRYhQmg-65" value="set bet * 2" style="rounded=0;whiteSpace=wrap;html=1;" parent="1" vertex="1">
          <mxGeometry x="555" y="1960" width="120" height="60" as="geometry" />
        </mxCell>
        <mxCell id="eXFcgHt2co3P4tRYhQmg-69" value="&quot;you bust, better luck next time&quot;" style="shape=parallelogram;perimeter=parallelogramPerimeter;whiteSpace=wrap;html=1;fixedSize=1;" parent="1" vertex="1">
          <mxGeometry x="-210" y="2080" width="193.12" height="80" as="geometry" />
        </mxCell>
        <mxCell id="eXFcgHt2co3P4tRYhQmg-106" style="edgeStyle=orthogonalEdgeStyle;rounded=0;orthogonalLoop=1;jettySize=auto;html=1;exitX=0.5;exitY=1;exitDx=0;exitDy=0;entryX=0.5;entryY=0;entryDx=0;entryDy=0;" parent="1" source="eXFcgHt2co3P4tRYhQmg-76" target="eXFcgHt2co3P4tRYhQmg-49" edge="1">
          <mxGeometry relative="1" as="geometry" />
        </mxCell>
        <mxCell id="eXFcgHt2co3P4tRYhQmg-76" value="show dealer&#39;s cards and score" style="shape=parallelogram;perimeter=parallelogramPerimeter;whiteSpace=wrap;html=1;fixedSize=1;" parent="1" vertex="1">
          <mxGeometry x="313.75" y="2120" width="198.75" height="70" as="geometry" />
        </mxCell>
        <mxCell id="eXFcgHt2co3P4tRYhQmg-109" style="edgeStyle=orthogonalEdgeStyle;rounded=0;orthogonalLoop=1;jettySize=auto;html=1;exitX=0;exitY=0.5;exitDx=0;exitDy=0;entryX=0.956;entryY=0.565;entryDx=0;entryDy=0;entryPerimeter=0;" parent="1" source="eXFcgHt2co3P4tRYhQmg-26" target="eXFcgHt2co3P4tRYhQmg-27" edge="1">
          <mxGeometry relative="1" as="geometry" />
        </mxCell>
        <mxCell id="eXFcgHt2co3P4tRYhQmg-111" style="edgeStyle=orthogonalEdgeStyle;rounded=0;orthogonalLoop=1;jettySize=auto;html=1;exitX=0.5;exitY=1;exitDx=0;exitDy=0;entryX=0.539;entryY=0.007;entryDx=0;entryDy=0;entryPerimeter=0;" parent="1" source="eXFcgHt2co3P4tRYhQmg-59" target="eXFcgHt2co3P4tRYhQmg-25" edge="1">
          <mxGeometry relative="1" as="geometry" />
        </mxCell>
      </root>
    </mxGraphModel>
  </diagram>
</mxfile>
